<?xml version="1.0" encoding="utf-8"?>
<!-- Generator: Adobe Illustrator 16.0.0, SVG Export Plug-In . SVG Version: 6.00 Build 0)  -->
<!DOCTYPE svg PUBLIC "-//W3C//DTD SVG 1.1//EN" "http://www.w3.org/Graphics/SVG/1.1/DTD/svg11.dtd">
<svg version="1.1" id="Layer_1" xmlns="http://www.w3.org/2000/svg" xmlns:xlink="http://www.w3.org/1999/xlink" x="0px" y="0px"
	 width="150px" height="87.993px"  xml:space="preserve">
<g>
	<g>
		<path fill="#25B39A" d="M68.577,80.62c0.039-1.276,0.386-2.562-0.099-3.825c-0.145-0.85-0.761-1.389-1.381-1.836
			c-3.586-2.572-7.25-9.162-7.456-10.058c-1.146-3.386-1.819-6.955-1.653-10.458c0.291-6.161,2.918-11.246,7.487-15.334
			c3.497-3.131,7.709-4.747,12.272-5.512c6.3-1.057,12.627-0.666,18.957-0.261c5.641,0.357,11.277,0.863,16.937,0.648
			c5.541-0.209,10.951-1.036,15.926-3.708c0.271-0.147,0.536-0.305,0.799-0.46c1.623-0.955,3.172-0.369,3.678,1.454
			c0.61,2.202,1.129,4.428,1.474,6.691c0.281,1.857,0.681,4.521,0.726,6.424c0.004,0.144,0.134,5.148,0.058,5.684
			c-0.051,0.94-0.32,2.493-0.563,3.841c-0.521,2.869-1.137,5.707-2.455,8.338c-0.918,1.594-1.706,3.258-2.788,4.754
			c-2.673,3.695-6.326,6-10.556,7.5c-3.787,1.342-7.702,1.914-11.704,1.961c-4.729,0.058-9.447,0.254-14.137,0.906
			c-7.166,1.001-13.524,3.904-19.301,8.176c-0.496,0.366-1.039,0.676-1.492,1.096c-1.375,1.277-2.857,1.529-4.484,0.494
			c-0.248-0.131-0.333-0.377-0.428-0.617c-0.405-0.612-0.267-1.307-0.277-1.975c-0.017-0.914-0.023-1.826,0.009-2.74
			C68.137,81.361,68.171,80.916,68.577,80.62z"/>
		<path fill="#A9CE38" d="M68.599,80.632c-0.315,1.959,0.045,4.115-0.131,6.08c-0.147-0.078-0.389-0.293-0.493-0.414
			c-4.829-5.373-10.16-10.305-14.397-16.211c-2.761-3.846-4.976-7.92-5.801-12.684c-0.727-4.199,0.099-8.104,1.822-11.888
			c2.241-4.924,5.868-8.729,9.921-12.176c1.251-1.065,2.519-2.113,3.779-3.168c0.601-0.612,1.169-2.957,1.412-4.213
			c0.964-4.998,4.031-8.427,8.361-10.871c3.368-1.899,7.024-2.866,10.79-3.508c0.418-0.042,0.846,0.001,1.254-0.136
			c0.265-0.035,0.531-0.026,0.796-0.031c0.374-0.009,0.733-0.098,1.097-0.18c0.327-0.035,0.657-0.021,0.984-0.026
			c0.112,0,0.222,0,0.333,0c0.989-0.04,1.979-0.07,2.959-0.204c0.096-0.002-14.153,1.565-17.047,2.788
			c-5.979,2.525-10.184,6.597-11.337,13.274c-0.058,0.337-0.133,0.704-0.351,0.987c-0.606,0.323-0.922-0.2-1.262-0.505
			c-1.388-1.392-3.271-5.079-3.391-5.485c-1.877-5.21,0.352-13.349,5.795-16.151c1.32-0.68,2.729-1.087,4.229-1.078
			c5.271,0.032,10.534,0.324,15.781,0.777c7.334,0.634,14.451-0.446,21.467-2.499c0.228-0.067,0.47-0.104,0.686-0.201
			c0.646-0.295,0.82-0.071,0.827,0.598c0.032,3.791-0.371,7.524-1.278,11.204c-0.132,0.531-0.41,0.973-0.526,1.509
			c-0.044,0.191-0.84,2.345-1.02,2.45c-0.468,0.692-5.402,8.73-10.352,10.587c-1.909,0.719-3.913,0.968-5.922,1.2
			c-2.938,0.341-5.885,0.214-8.825,0.18c-1.604-0.018-3.208-0.189-4.817-0.191c-3.456-0.003-6.473,1.233-9.03,3.436
			c-3.115,2.684-5.987,5.631-8.433,8.972c-2.351,3.211-3.992,6.727-4.418,10.71c-0.301,2.831,0.299,5.56,1.371,8.183
			c1.171,2.588,2.335,5.186,3.939,7.539C60.414,73.761,64.229,77.474,68.599,80.632z"/>
		<path fill="#A9CE38" d="M49.236,42.853c-1.066-7.007-5.356-11.44-11.545-14.272c-3.762-1.721-7.758-2.661-11.883-3.029
			c-0.427-0.156,6.36,1.675,9.576,3.106c3.108,1.38,5.915,3.174,8.156,5.769c2.722,3.146,3.735,6.865,3.626,10.951
			c-0.034,1.227,0.095,2.462-0.197,3.675c-0.562,0.187-0.895-0.236-1.274-0.498c-1.753-1.205-3.503-2.406-5.572-3.044
			c-1.489-0.459-2.996-0.719-4.551-0.721c-2.434,0-4.877,0.107-7.302-0.023c-4.11-0.223-8.225-0.586-12.09-2.154
			c-3.615-1.467-6.342-3.989-8.328-7.339c-0.52-0.877-0.916-1.82-1.467-2.681c-1.103-2.045-1.591-4.29-1.986-6.536
			c-0.643-3.643-1.039-7.313-0.719-11.03c0.061-0.73,0.201-0.833,0.899-0.594c4.632,1.581,9.326,2.933,14.194,3.578
			c1.117,0.148,2.247,0.295,3.371,0.305c4.25,0.034,8.5,0.035,12.751-0.056c3.048-0.064,6.104-0.035,9.15,0.123
			c3.846,0.199,6.734,2.119,8.702,5.401c2.442,4.075,2.929,8.379,1.396,12.894c-0.794,1.529-1.422,3.154-2.612,4.448
			C50.87,41.841,50.246,42.6,49.236,42.853z"/>
		<path fill="#F9F9F9" d="M130.279,35.787c0.664,1.412,0.707,2.967,0.965,4.464c0.431,2.501,0.508,5.033,0.473,7.574
			c-0.153,11.108-6.392,19.306-17.051,22.415c-4.688,1.369-9.501,1.493-14.326,1.65c-5.039,0.16-10.014,0.801-14.817,2.445
			c-3.979,1.362-7.617,3.375-11.083,5.725c-0.335,0.226-0.673,0.443-1.18,0.779c0-1.576,0-2.99,0-4.404
			c0-0.582,0.007-1.168-0.006-1.75c-0.026-1.113-0.468-1.895-1.528-2.44c-5.226-2.685-7.74-7.188-8.565-12.845
			c-0.539-3.693,0.204-7.203,1.276-10.688c1.376-4.385,4.242-7.34,8.552-8.914c3.052-1.115,6.217-1.558,9.453-1.786
			c6.057-0.429,12.032,0.351,18.015,1.007c4.366,0.479,8.736,0.902,13.121,0.632c5.333-0.329,10.519-1.43,15.438-3.602
			C129.411,35.871,129.8,35.589,130.279,35.787z"/>
		<path fill="#A5CC2F" d="M89.107,11.139c1.129-0.355,2.26-0.109,3.415,0.081c-0.306,0.056-0.61,0.111-0.917,0.165
			c-0.693-0.278-1.362,0.224-2.052,0.065C89.378,11.388,89.182,11.351,89.107,11.139z"/>
		<path fill="#A9CE38" d="M96.162,58.089c-1.199-1.274-1.437-2.636-0.718-4.094c0.626-1.27,1.756-1.85,3.299-1.693
			c2.331,0.234,3.487,2.994,2.177,5.193C99.37,59.003,98.304,59.134,96.162,58.089z"/>
		<path fill="#A9CE38" d="M79.817,57.273c-0.861-1.309-0.413-3.594,0.935-4.48c1.252-0.824,3.129-0.652,4.136,0.432
			c1.211,1.302,1.227,3.209,0.039,4.66c-1.216,0.865-2.497,1.179-3.912,0.479C80.509,58.112,80.176,57.679,79.817,57.273z"/>
		<path fill="#A9CE38" d="M111.078,57.275c-0.896-1.545-0.322-3.622,0.919-4.469c1.271-0.867,3.187-0.67,4.195,0.467
			c1.186,1.339,1.17,3.262-0.041,4.636c-1.246,0.894-2.553,1.149-3.967,0.396C111.722,58.054,111.44,57.628,111.078,57.275z"/>
	</g>
</g>

</svg>
